<svg width="48" height="14" viewBox="0 0 48 14" fill="none" xmlns="http://www.w3.org/2000/svg">
<path d="M45.8999 11.2H45.5999V10.7H45.8999C46.1999 10.7 46.1999 10.8 46.1999 10.9C46.1999 11.1 46.0999 11.2 45.8999 11.2ZM46.3999 11.8C46.3999 11.6 46.2999 11.4 46.1999 11.4C46.3999 11.4 46.4999 11.2 46.4999 11C46.4999 10.7 46.2999 10.5 45.8999 10.5H45.1999V12.3H45.4999V11.5H45.6999C45.8999 11.5 45.9999 11.5 45.9999 11.7C46.0999 11.9 45.9999 12.1 46.0999 12.3H46.3999C46.4999 12.2 46.4999 12 46.3999 11.8ZM45.8999 11.2H45.5999V10.7H45.8999C46.1999 10.7 46.1999 10.8 46.1999 10.9C46.1999 11.1 46.0999 11.2 45.8999 11.2ZM46.3999 11.8C46.3999 11.6 46.2999 11.4 46.1999 11.4C46.3999 11.4 46.4999 11.2 46.4999 11C46.4999 10.7 46.2999 10.5 45.8999 10.5H45.1999V12.3H45.4999V11.5H45.6999C45.8999 11.5 45.9999 11.5 45.9999 11.7C46.0999 11.9 45.9999 12.1 46.0999 12.3H46.3999C46.4999 12.2 46.4999 12 46.3999 11.8ZM45.8999 12.7C45.1999 12.7 44.6999 12.2 44.6999 11.4C44.6999 10.7 45.1999 10.1 45.8999 10.1C46.5999 10.1 47.0999 10.6 47.0999 11.4C47.0999 12.2 46.5999 12.7 45.8999 12.7ZM45.8999 9.89999C45.0999 9.89999 44.3999 10.5 44.3999 11.4C44.3999 12.3 45.0999 12.9 45.8999 12.9C46.6999 12.9 47.3999 12.3 47.3999 11.4C47.3999 10.5 46.6999 9.89999 45.8999 9.89999ZM45.8999 11.3H45.5999V10.8H45.8999C46.1999 10.8 46.1999 10.9 46.1999 11C46.1999 11.1 46.0999 11.3 45.8999 11.3ZM46.1999 11.4C46.3999 11.4 46.4999 11.2 46.4999 11C46.4999 10.7 46.2999 10.5 45.8999 10.5H45.1999V12.3H45.4999V11.5H45.6999C45.8999 11.5 45.9999 11.6 45.9999 11.7C46.0999 11.9 45.9999 12.1 46.0999 12.3H46.3999C46.2999 12.3 46.2999 12 46.2999 11.8C46.3999 11.6 46.3999 11.4 46.1999 11.4ZM39.2999 8.60001L42.8999 4.60001H39.2999L37.5999 6.60001L35.7999 4.60001H31.9999L35.5999 8.60001L31.9999 12.6H35.6999L37.4999 10.6L39.2999 12.6H43.0999L39.2999 8.60001ZM31.8999 2.79999V0H24.8999V12.7H31.8999V9.89999H27.8999V7.39999H31.8999V4.70001H27.8999V2.89999L31.8999 2.79999Z" fill="#FF5A00"/>
<path d="M20.1 10.8C19 10.8 18.3 9.80001 18.3 8.70001C18.3 7.60001 18.9 6.5 20.1 6.5C21.3 6.5 21.8 7.60001 21.8 8.70001C21.8 9.80001 21.3 10.8 20.1 10.8ZM9.6 7.39999C9.8 6.59999 10.4 6.10001 11.2 6.10001C12 6.10001 12.7 6.59999 12.8 7.39999H9.6ZM21.9 0V5.20001C21.2 4.40001 20.4 4.20001 19.5 4.20001C17.6 4.20001 16.1 5.49999 15.6 7.29999C15 5.39999 13.5 4.20001 11.2 4.20001C9.4 4.20001 7.9 4.99999 7.2 6.39999V4.79999H3.4V3H7.5V0H0V12.7H3.4V7.39999H6.8C6.7 7.79999 6.6 8.20001 6.6 8.60001C6.6 11.2 8.6 13.1 11.2 13.1C13.4 13.1 14.8 12.1 15.5 10.2H12.6C12.2 10.8 11.9 10.9 11.1 10.9C10.2 10.9 9.4 10.1 9.4 9.20001H15.3C15.5 11.3 17.2 13.1 19.4 13.1C20.4 13.1 21.2 12.6 21.8 11.8V12.6H24.8V0H21.9Z" fill="#29007C"/>
</svg>
