<svg width="24" height="24" viewBox="0 0 24 24" fill="none" xmlns="http://www.w3.org/2000/svg">
<path d="M7.47818 3.72857C7.95668 3.72857 8.44181 3.67859 8.91278 3.7383C10.2019 3.90195 11.1655 4.91037 11.2464 6.20893C11.2995 7.06033 11.3004 7.92058 11.2456 8.77199C11.1602 10.0931 10.1329 11.1378 8.80753 11.2324C7.90671 11.2966 6.9935 11.2997 6.09311 11.2324C4.79737 11.136 3.74928 9.96484 3.71744 8.65699C3.69798 7.85335 3.69887 7.04972 3.717 6.24652C3.74663 4.93204 4.94685 3.74538 6.26293 3.71486C6.66801 3.70557 7.0731 3.71353 7.47862 3.71353C7.47818 3.7184 7.47818 3.72371 7.47818 3.72857Z" fill="#4D4D4D"/>
<path d="M11.1488 16.9248C11.1488 17.3888 11.1789 17.8554 11.143 18.3167C11.0409 19.6352 9.91717 20.6768 8.59224 20.6971C7.863 20.7086 7.13332 20.702 6.40408 20.6998C4.97169 20.6953 3.75555 19.5273 3.71752 18.0969C3.69629 17.2941 3.69806 16.4901 3.71663 15.6869C3.74626 14.4016 4.82531 13.2627 6.17279 13.1689C7.07406 13.1061 7.98727 13.1114 8.88854 13.18C10.1922 13.2791 11.185 14.4427 11.174 15.7532C11.1709 16.1438 11.1735 16.5343 11.1735 16.9248C11.1651 16.9248 11.1572 16.9248 11.1488 16.9248Z" fill="#4D4D4D"/>
<path d="M16.8982 11.1696C16.5373 11.1696 16.176 11.1749 15.8151 11.1687C14.3757 11.143 13.271 10.1589 13.1679 8.72548C13.1051 7.85373 13.1082 6.96915 13.1772 6.09784C13.2803 4.78778 14.4522 3.7431 15.7705 3.71568C16.5656 3.69931 17.3621 3.69843 18.1572 3.71612C19.4914 3.74531 20.6138 4.91737 20.6067 6.24733C20.6027 6.98419 20.6058 7.72104 20.6041 8.45833C20.6001 9.99484 19.4719 11.1421 17.9365 11.1687C17.5907 11.1744 17.2444 11.1696 16.8982 11.1696Z" fill="#4D4D4D"/>
<path d="M13.2762 16.8725C13.2762 16.3714 13.2214 15.8632 13.2873 15.3714C13.4447 14.1883 14.4092 13.2599 15.6064 13.1798C16.5227 13.1188 17.4505 13.1188 18.3663 13.1856C19.6218 13.2776 20.6765 14.4713 20.6942 15.7314C20.7048 16.4908 20.7035 17.2507 20.6951 18.0101C20.6796 19.4117 19.5391 20.5731 18.1373 20.6041C17.3638 20.6214 16.589 20.6205 15.8155 20.6045C14.3902 20.5754 13.2824 19.4387 13.244 17.9791C13.2342 17.6107 13.2426 17.2418 13.2426 16.873C13.2537 16.8725 13.2647 16.8725 13.2762 16.8725Z" fill="#4D4D4D"/>
</svg>
