<svg width="36" height="21" viewBox="0 0 36 21" fill="none" xmlns="http://www.w3.org/2000/svg">
<path d="M5.66504 0.158203H35.4279C35.4279 0.203712 35.4127 0.24922 35.4051 0.287144C35.1928 1.3566 34.9804 2.42607 34.7604 3.49554C34.5026 4.78496 34.2447 6.07437 33.9792 7.36379C33.6834 8.82008 33.3875 10.284 33.0917 11.7402C32.849 12.9311 32.6139 14.1143 32.3712 15.3051C32.1664 16.3215 31.9616 17.3378 31.7568 18.3542C31.6278 18.9838 31.5065 19.6209 31.3775 20.258C31.3548 20.3794 31.3397 20.4931 31.3169 20.6145C31.3169 20.6372 31.3093 20.66 31.3017 20.6828C31.2638 20.7965 31.2107 20.842 31.0893 20.842C31.0286 20.842 30.968 20.842 30.9073 20.842C21.7296 20.842 12.5445 20.842 3.36682 20.842C3.33648 20.842 3.29855 20.842 3.26821 20.842C3.25304 20.842 3.23783 20.8269 3.22266 20.8193C3.23024 20.8041 3.24545 20.7889 3.26062 20.7738C3.2682 20.7662 3.29091 20.7586 3.30608 20.7586C4.87614 20.1518 6.44626 19.545 8.01632 18.9458C9.30574 18.4528 10.5951 17.9522 11.8846 17.4592C13.2043 16.951 14.5241 16.4428 15.8438 15.9347C17.1712 15.4189 18.4985 14.9031 19.8259 14.3949C21.0319 13.9323 22.2454 13.4696 23.4514 13.0069C24.5209 12.5897 25.5827 12.165 26.6446 11.7478C27.4638 11.4293 28.2829 11.1183 29.1021 10.8073C29.4434 10.6784 29.7696 10.5267 30.0654 10.3067C30.4446 10.0261 30.7481 9.67717 30.9604 9.26C31.2487 8.69872 31.3851 8.09194 31.3851 7.4624C31.3851 6.82527 31.0969 6.32468 30.5584 5.98336C30.3233 5.83166 30.0502 5.75582 29.7772 5.72548C29.2007 5.6648 28.6318 5.65721 28.0554 5.6648C27.8582 5.6648 27.661 5.66479 27.4638 5.67238C27.2591 5.67238 27.0921 5.59653 26.9404 5.46C26.7281 5.27038 26.5157 5.08835 26.2882 4.9139C25.8179 4.56499 25.2945 4.30711 24.7332 4.14783C24.1037 3.97338 23.4666 3.82926 22.8295 3.69274C21.4415 3.40451 20.0534 3.11629 18.6654 2.82807C17.3001 2.54743 15.9273 2.26679 14.562 1.98615C13.1133 1.69034 11.6721 1.39453 10.2234 1.09873C9.13881 0.878766 8.05424 0.658806 6.96961 0.44643C6.56003 0.362997 6.15805 0.287143 5.74846 0.20371C5.71813 0.20371 5.68779 0.188542 5.65745 0.180957C5.65745 0.180957 5.65745 0.17338 5.65745 0.165795L5.66504 0.158203Z" fill="#1C76B8"/>
<path d="M15.2746 12.3236C15.3732 12.2857 15.4794 12.2402 15.578 12.2022C16.4958 11.8306 17.4059 11.4437 18.3313 11.0873C18.9684 10.837 19.6207 10.617 20.273 10.397C21.3652 10.0254 22.465 9.67648 23.5724 9.35792C24.3764 9.13038 25.188 8.94076 26.0071 8.80423C26.5608 8.71321 27.1297 8.69045 27.6909 8.71321C27.8502 8.71321 28.0171 8.71321 28.1688 8.7663C28.3357 8.82698 28.5025 8.89524 28.6618 8.96351C28.7453 9.00143 28.8287 9.03936 28.9273 9.07729C28.9273 9.12279 28.9121 9.1683 28.9045 9.21381C28.6845 9.25173 28.4646 9.31241 28.237 9.28207C27.8654 9.22897 27.4937 9.25932 27.1297 9.33517C26.5532 9.44894 25.9844 9.56271 25.4231 9.72199C24.9225 9.85852 24.4371 10.033 23.9593 10.2302C22.3892 10.8597 20.8191 11.4893 19.2566 12.134C17.8838 12.7028 16.511 13.2945 15.1457 13.8785C14.0762 14.3336 13.0067 14.7962 11.9448 15.2665C10.7768 15.7823 9.6163 16.3132 8.45582 16.8517C6.9161 17.5647 5.38402 18.308 3.86705 19.0817C2.78242 19.6354 1.70535 20.1891 0.620722 20.7427C0.575213 20.7655 0.537241 20.7958 0.476562 20.7731C0.476562 20.7503 0.476562 20.7276 0.476562 20.7048C0.681353 19.6126 0.89378 18.5204 1.09857 17.4358C1.34129 16.1843 1.58397 14.9328 1.82668 13.6737C2.02389 12.6346 2.22871 11.5954 2.42592 10.5563C2.64588 9.41102 2.86582 8.25811 3.0782 7.1128C3.20714 6.43775 3.3209 5.76271 3.44226 5.08766C3.44226 5.07249 3.44226 5.0649 3.44226 5.04973C3.4726 4.90562 3.51814 4.86011 3.66984 4.86011C4.10976 4.86011 4.54208 4.86011 4.982 4.86011C6.79478 4.86011 8.60749 4.85253 10.4203 4.84495C11.4442 4.84495 12.4682 4.83736 13.4922 4.83736C14.2886 4.83736 15.0926 4.83736 15.889 4.83736C17.9597 4.83736 20.0379 4.82977 22.1085 4.83736C22.7684 4.83736 23.4207 4.89045 24.0654 5.0194C24.5963 5.12558 25.1197 5.26969 25.6127 5.48965C25.8858 5.61101 26.1209 5.77788 26.2954 6.0206C26.3409 6.08128 26.3788 6.14196 26.4091 6.21022C26.4395 6.27848 26.4926 6.3164 26.5684 6.32399C26.6518 6.33157 26.7352 6.33916 26.8187 6.33916C27.5241 6.33916 28.2295 6.33915 28.9349 6.35432C29.1017 6.35432 29.2762 6.36949 29.4431 6.39225C29.5948 6.40742 29.7313 6.4681 29.8451 6.55912C30.0271 6.70323 30.1257 6.89285 30.156 7.1204C30.1712 7.22658 30.1788 7.34036 30.1712 7.45413C30.1712 7.83337 30.1181 8.21262 30.0044 8.5691C29.8906 8.918 29.7237 9.23657 29.4885 9.51721C29.3975 9.63098 29.2762 9.71441 29.1473 9.81301C29.1321 9.67649 29.1245 9.55513 29.1473 9.44135C29.2307 8.99385 29.3141 8.53876 29.3899 8.09125C29.3975 8.03058 29.4127 7.96231 29.4127 7.90163C29.4127 7.78786 29.352 7.69685 29.2383 7.66651C29.17 7.64375 29.0941 7.63616 29.0183 7.63616C28.0247 7.62858 27.0311 7.621 26.0375 7.621C25.1652 7.621 24.2929 7.62858 23.4131 7.63616C23.3827 7.63616 23.36 7.63616 23.3373 7.63616C23.2538 7.49963 23.2842 7.40862 23.4359 7.37828C23.7165 7.3176 23.9971 7.26451 24.2778 7.21141C24.6494 7.13556 25.0286 7.0673 25.3927 6.95353C25.6506 6.8701 25.8933 6.75632 26.0906 6.5667C26.1436 6.5136 26.1967 6.45293 26.2498 6.39225C26.174 6.36949 13.3253 6.36191 13.1812 6.38467C13.1812 6.45293 15.2063 12.2402 15.267 12.3615L15.2746 12.3236Z" fill="#1C76B8"/>
</svg>
