<svg width="25" height="29" viewBox="0 0 25 29" fill="none" xmlns="http://www.w3.org/2000/svg">
<path fill-rule="evenodd" clip-rule="evenodd" d="M0 2.69998V17C0 23.7 5 25.8 12.5 28.9C20 25.8 25 23.8 25 17.1V2.69998C17.3 -1.30002 6.2 -0.500018 0 2.69998Z" fill="#F5AF04"/>
<path fill-rule="evenodd" clip-rule="evenodd" d="M23.9002 2.99993V16.9999C23.9002 22.5999 20.4002 24.3999 12.6002 27.6999C4.80019 24.2999 1.2002 22.5999 1.2002 16.9999V8.79993C8.0002 2.79993 16.6002 2.39993 23.9002 2.99993Z" fill="#331A13"/>
<path fill-rule="evenodd" clip-rule="evenodd" d="M12.1002 17.6999V11.1999C12.7002 10.8999 14.7002 10.4 14.7002 14.4C14.6002 18.8 12.2002 17.7999 12.1002 17.6999ZM9.9002 10.1V23.9H12.1002V19.4C13.7002 19.9 16.9002 19.2 16.9002 14.3C16.8002 7.99996 11.5002 9.09995 9.9002 10.1ZM19.4002 12C19.4002 10.7 21.4002 10.7 22.6002 11.9V9.99995C20.7002 8.59995 17.3002 9.39995 17.3002 12.1C17.3002 15.2 20.7002 14.7999 20.8002 16.6999C20.8002 18.1999 18.8002 18.2 17.4002 17V18.9C19.8002 20.3 22.9002 19.3999 22.9002 16.6999C23.1002 13.3999 19.4002 13.7 19.4002 12ZM6.60019 9.49995V17.5C6.30019 17.7 4.4002 18.4 4.4002 16.3V9.49995H2.2002V16.1999C2.2002 21.0999 7.5002 19.4999 8.7002 18.6999V9.49995H6.60019Z" fill="#F5AF04"/>
</svg>
