<svg width="60" height="60" viewBox="0 0 60 60" fill="none" xmlns="http://www.w3.org/2000/svg">
<path d="M55.3479 31.1029V3.78061C55.3479 2.80587 54.5577 2.01562 53.5829 2.01562H6.29511C5.32036 2.01562 4.53012 2.80587 4.53012 3.78061V33.281C3.67869 33.405 2.84632 33.7355 2.10997 34.2822C-0.211348 35.9283 -0.760378 39.6119 1.18405 41.8837L9.13392 51.5214C14.0549 57.2807 19.2825 57.9864 27.0539 57.9864C33.7228 57.9864 36.7043 58.0158 42.5165 56.6915L48.176 55.3378C49.0936 56.6193 50.5505 57.4495 52.1883 57.4495H54.9762C57.7463 57.4495 60 55.0753 60 52.1571V36.3794C60.0001 33.5929 57.9449 31.3041 55.3479 31.1029ZM47.4147 34.7336L45.063 33.5392C41.1964 31.5874 36.7259 31.5152 32.7982 33.3412C31.7266 33.7627 29.3894 35.1768 28.1771 35.1295H20.0167C17.3099 35.1295 15.1077 37.3317 15.1077 40.0386V41.3257C15.0925 41.3097 15.0766 41.2945 15.0617 41.2783L9.23429 34.9529C8.88164 34.5702 8.48546 34.2499 8.06022 33.9929V16.482H22.5041V22.9519C22.5041 23.9267 23.2943 24.7169 24.2691 24.7169H35.4063C36.381 24.7169 37.1712 23.9267 37.1712 22.9519V16.482H51.8181V31.1028C49.7559 31.2621 48.0363 32.7374 47.4147 34.7336ZM26.0339 16.482H33.6412V21.1869H26.0339V16.482ZM51.818 12.952H37.1712V5.5456H51.8181V12.952H51.818ZM33.6413 5.5456V12.9521H26.034V5.5456H33.6413ZM22.504 5.5456V12.9521H8.0601V5.5456H22.504ZM41.6973 53.2577C36.3282 54.4875 33.0946 54.4377 27.1172 54.4377C19.8219 54.4377 16.297 54.3198 11.8572 49.275L3.90731 39.6373C2.5245 37.8367 5.02914 35.711 6.63811 37.3445L12.4655 43.67C14.0056 45.2951 15.9437 46.1894 18.3325 46.242H34.4889C35.4637 46.242 36.2539 45.4518 36.2539 44.477C36.2539 43.5023 35.4637 42.7121 34.4889 42.7121H18.6376V40.0383C18.6376 39.278 19.2561 38.6593 20.0166 38.6593H28.177C30.0154 38.791 32.6689 37.2559 34.2863 36.542C37.228 35.1743 40.5763 35.2284 43.4684 36.6881L47.1647 38.5656V51.9499L41.6973 53.2577ZM56.4701 52.157C56.4701 53.1288 55.8 53.9194 54.9763 53.9194H52.1884C51.3647 53.9194 50.6947 53.1288 50.6947 52.157V36.3794C50.6947 35.4076 51.3648 34.6169 52.1884 34.6169H54.9763C55.8 34.6169 56.4701 35.4075 56.4701 36.3794V52.157Z" fill="#242424"/>
</svg>
